<?xml version="1.0" encoding="utf-8"?>
<!-- Generator: Adobe Illustrator 24.0.0, SVG Export Plug-In . SVG Version: 6.00 Build 0)  -->
<svg version="1.1" id="Слой_1" xmlns="http://www.w3.org/2000/svg" xmlns:xlink="http://www.w3.org/1999/xlink" x="0px" y="0px"
	 viewBox="0 0 21 18" style="enable-background:new 0 0 21 18;" xml:space="preserve">
<style type="text/css">
	.st0{fill-rule:evenodd;clip-rule:evenodd;fill:#FFFFFF;}
</style>
<path id="Shape_1_копия" class="st0" d="M18.1,0h-4.3c-0.7,0-1.3,0.3-1.8,0.7L0.8,11.5C0.3,12,0,12.6,0,13.3v1.9
	C0,16.7,1.3,18,2.9,18l2,0h0c0.7,0,1.3-0.3,1.8-0.7l8.3-8c0.6-0.6,0.6-1.5,0.1-2.1c0,0,0,0-0.1-0.1l-1.2-1.2
	c-0.3-0.3-0.7-0.5-1.1-0.5l0,0c-0.4,0-0.8,0.2-1.1,0.5l-7.2,6.9C4,13.1,4,13.7,4.4,14c0,0,0,0,0,0c0.4,0.4,1,0.4,1.4,0l7-6.7
	l0.8,0.8L5.4,16c-0.1,0.1-0.3,0.2-0.5,0.2h0l-2,0c-0.5,0-1-0.4-1-1v-1.9c0-0.2,0.1-0.3,0.2-0.5L13.3,2c0.1-0.1,0.3-0.2,0.5-0.2h4.3
	c0.5,0,1,0.4,1,1v4.1c0,0.2-0.1,0.3-0.2,0.5l-5.8,5.5c-0.4,0.3-0.4,0.9,0,1.3c0,0,0,0,0,0c0.4,0.4,1,0.4,1.4,0l5.8-5.5
	C20.7,8.2,21,7.6,21,6.9V2.8C21,1.2,19.7,0,18.1,0z"/>
</svg>
