<svg version="1.1" xmlns="http://www.w3.org/2000/svg" xmlns:xlink="http://www.w3.org/1999/xlink" x="0px" y="0px"
	 width="92px" height="102px" viewBox="0 0 92 102" style="enable-background:new 0 0 92 102;" xml:space="preserve">
<style type="text/css">
	.st0{fill:#FFFFFF;}
</style>
<path class="st0" d="M0.86,76.44c1.33,5.84,4.05,11.05,8.15,15.62c4.07,4.55,9.64,7.61,14.48,8.69c0.03,0.01,1.31,0.2,1.34,0.21
	c-0.03,0-1.31,0-1.34,0c-8.82-0.01-15.73-2.1-18.48-5.4C2.24,92.26,0.86,85.88,0.86,76.44z M27.88,68.41
	C10.53,63.06,1.86,55.18,1.86,44.77c0-5.16,1.91-9.34,5.72-12.55c3.78-3.18,9.06-5.46,15.83-5.97c0.06,0,1.12-0.01,1.18-0.01
	c-0.06,0.01-1.12,0.1-1.19,0.11c-4.01,0.81-7.2,2.8-9.54,5.29c-2.38,2.53-3.57,5.5-3.57,8.9c0,3.99,1.74,7.42,5.22,10.29
	c3.48,2.87,9.03,5.47,16.66,7.81c16.97,5.25,25.45,12.9,25.45,22.92c0,5.55-2.24,10.02-6.72,13.43c-4.44,3.38-9.74,5.4-17.73,5.91
	c-0.07,0-0.79,0.01-0.86,0.01c0.07-0.01,0.79-0.13,0.86-0.14c5.12-0.79,8.28-2.51,11.3-5.2c3.05-2.72,4.57-5.98,4.57-9.78
	s-1.67-7.08-5-9.85C40.7,73.16,35.32,70.65,27.88,68.41z M53.33,49.59c-1.43-5.55-4.03-10.44-7.79-14.67
	c-3.73-4.19-8.02-7.46-12.46-8.57c-0.04-0.01-1.07-0.11-1.12-0.12c0.04,0,1.08,0,1.12,0c8.23,0.02,13.82,2.33,16.38,5.47
	C52.05,34.87,53.33,40.83,53.33,49.59z"/>
<path class="st0" d="M80.09,1.69c1.18-1.2,2.77-1.8,4.77-1.8c2,0,3.6,0.6,4.77,1.8c1.18,1.2,1.77,2.83,1.77,4.87
	c0,2.05-0.59,3.67-1.77,4.87c-1.18,1.2-2.77,1.8-4.77,1.8c-2.01,0-3.6-0.6-4.77-1.8c-1.18-1.2-1.77-2.82-1.77-4.87
	C78.32,4.51,78.91,2.89,80.09,1.69z"/>
</svg>
